<?xml version="1.0" encoding="UTF-8"?>
<svg width="800" height="600" viewBox="0 0 800 600" fill="none" xmlns="http://www.w3.org/2000/svg">
  <!-- Background -->
  <path d="M0 0h800v600H0z" fill="#F8FAFC"/>
  
  <!-- Desk -->
  <rect x="200" y="400" width="500" height="20" fill="#2196F3"/>
  <rect x="250" y="420" width="20" height="180" fill="#1976D2"/>
  <rect x="630" y="420" width="20" height="180" fill="#1976D2"/>
  
  <!-- Monitor -->
  <rect x="450" y="150" width="280" height="200" rx="10" fill="#FFFFFF" stroke="#2196F3" stroke-width="4"/>
  <rect x="470" y="170" width="240" height="140" fill="#E3F2FD"/>
  <circle cx="590" cy="200" r="30" fill="#2196F3"/>
  <rect x="520" y="250" width="140" height="10" rx="5" fill="#BBDEFB"/>
  <rect x="520" y="270" width="140" height="10" rx="5" fill="#BBDEFB"/>
  
  <!-- Person -->
  <path d="M350 250c22.1 0 40-17.9 40-40s-17.9-40-40-40-40 17.9-40 40 17.9 40 40 40z" fill="#EF5350"/>
  <path d="M350 270c-33.1 0-60 26.9-60 60v70h120v-70c0-33.1-26.9-60-60-60z" fill="#EF5350"/>
  <path d="M310 330h80v40h-80z" fill="#C62828"/>
  
  <!-- Plant -->
  <rect x="150" y="300" width="60" height="80" rx="5" fill="#EF5350"/>
  <path d="M180 280c0 0-20-30-40-20s0 40 0 40" stroke="#1565C0" stroke-width="4"/>
  <path d="M180 290c0 0 20-30 40-20s0 40 0 40" stroke="#1565C0" stroke-width="4"/>
  <path d="M180 270c0 0 0-40-30-40s-10 40-10 40" stroke="#1565C0" stroke-width="4"/>
  
  <!-- Lamp -->
  <path d="M700 200l-40 100h80z" fill="#FDD835"/>
  <rect x="690" y="100" width="20" height="100" fill="#2196F3"/>
  <circle cx="700" cy="100" r="20" fill="#2196F3"/>
  
  <!-- Waste Basket -->
  <path d="M720 500l-40-60h80z" fill="#2196F3"/>
  <rect x="680" y="440" width="80" height="60" fill="#1976D2"/>
</svg>
